<svg xmlns="http://www.w3.org/2000/svg" xmlns:xlink="http://www.w3.org/1999/xlink" id="629dcec7-c063-4496-b40c-d8a33d01e794" width="873.56" height="795" data-name="Layer 1" viewBox="0 0 873.56 795"><defs><linearGradient id="1ad885a6-086f-4584-b8fc-49709722d9e2" x1="441" x2="441" y1="598" y2="55" gradientUnits="userSpaceOnUse"><stop offset="0" stop-color="gray" stop-opacity=".25"/><stop offset=".54" stop-color="gray" stop-opacity=".12"/><stop offset="1" stop-color="gray" stop-opacity=".1"/></linearGradient><linearGradient id="6f115915-dfc3-4eba-8ca8-4e2bf8885e02" x1="441.5" x2="441.5" y1="91" y2="44.98" xlink:href="#1ad885a6-086f-4584-b8fc-49709722d9e2"/><linearGradient id="4923b0dd-8e96-4c93-b583-a6b0ce88de70" x1="604.72" x2="604.72" y1="106.89" y2="52.5" xlink:href="#1ad885a6-086f-4584-b8fc-49709722d9e2"/><linearGradient id="ea587278-d59f-43ad-bda4-771cfa902fd4" x1="308.5" x2="308.5" y1="227" y2="145" xlink:href="#1ad885a6-086f-4584-b8fc-49709722d9e2"/><linearGradient id="e2b55b91-c252-4605-a1d1-0f99b0ab4047" x1="308.78" x2="308.78" y1="389.5" y2="307.5" xlink:href="#1ad885a6-086f-4584-b8fc-49709722d9e2"/><linearGradient id="76544af5-6047-4a4c-b2fc-a23f66c9d65b" x1="309.06" x2="309.06" y1="550" y2="468" xlink:href="#1ad885a6-086f-4584-b8fc-49709722d9e2"/><linearGradient id="daf008b2-47be-48c6-a376-1f125493a331" x1="308.5" x2="308.5" y1="205.63" y2="165.37" xlink:href="#1ad885a6-086f-4584-b8fc-49709722d9e2"/><linearGradient id="ebbb3683-2e35-4ba5-aa17-65e675e22e58" x1="796.5" x2="796.5" y1="193" y2="42" xlink:href="#1ad885a6-086f-4584-b8fc-49709722d9e2"/><linearGradient id="3d5714ec-ccf4-45ec-9ad7-6b8d237940bd" x1="796.5" x2="796.5" y1="176" y2="69" xlink:href="#1ad885a6-086f-4584-b8fc-49709722d9e2"/><linearGradient id="77e7c8c2-0f5e-4b8d-920a-2630d282c2c9" x1="628" x2="628" y1="795" y2="620" xlink:href="#1ad885a6-086f-4584-b8fc-49709722d9e2"/><linearGradient id="a6898519-96e7-44e1-b71e-df9c3f17d463" x1="102" x2="102" y1="464.25" y2="319.75" xlink:href="#1ad885a6-086f-4584-b8fc-49709722d9e2"/></defs><title>customer survey</title><g opacity=".5"><rect width="393" height="543" x="244.5" y="55" fill="url(#1ad885a6-086f-4584-b8fc-49709722d9e2)"/></g><rect width="383" height="531" x="249.5" y="59" fill="#fff"/><rect width="190" height="46.02" x="346.5" y="44.98" fill="url(#6f115915-dfc3-4eba-8ca8-4e2bf8885e02)"/><path fill="url(#4923b0dd-8e96-4c93-b583-a6b0ce88de70)" d="M604.72,52.5c-14.67,0-26.56,12.18-26.56,27.2s11.89,27.2,26.56,27.2,26.56-12.18,26.56-27.2S619.39,52.5,604.72,52.5Zm0,42.89A15.69,15.69,0,1,1,620,79.7,15.51,15.51,0,0,1,604.72,95.39Z" transform="translate(-163.22 -52.5)"/><rect width="186" height="44" x="348.5" y="45" fill="#00f"/><path fill="#00f" d="M604.72,54.5a26,26,0,1,0,26,26A26,26,0,0,0,604.72,54.5Zm0,41a15,15,0,1,1,15-15A15,15,0,0,1,604.72,95.5Z" transform="translate(-163.22 -52.5)"/><rect width="82" height="82" x="267.5" y="145" fill="url(#ea587278-d59f-43ad-bda4-771cfa902fd4)"/><rect width="82" height="82" x="267.78" y="307.5" fill="url(#e2b55b91-c252-4605-a1d1-0f99b0ab4047)"/><rect width="82" height="82" x="268.06" y="468" fill="url(#76544af5-6047-4a4c-b2fc-a23f66c9d65b)"/><rect width="76" height="76" x="270.5" y="148" fill="#69f0ae"/><rect width="76" height="76" x="270.5" y="309" fill="#00f"/><rect width="76" height="76" x="270.5" y="470" fill="#00f"/><rect width="104.17" height="7.27" x="396.5" y="171.46" fill="#e0e0e0"/><rect width="172" height="7.27" x="396.5" y="182.37" fill="#e0e0e0"/><rect width="159.89" height="7.27" x="396.5" y="193.27" fill="#e0e0e0"/><rect width="104.17" height="7.27" x="396.5" y="332.46" fill="#e0e0e0"/><rect width="172" height="7.27" x="396.5" y="343.37" fill="#e0e0e0"/><rect width="159.89" height="7.27" x="396.5" y="354.27" fill="#e0e0e0"/><rect width="104.17" height="7.27" x="396.5" y="493.46" fill="#e0e0e0"/><rect width="172" height="7.27" x="396.5" y="504.37" fill="#e0e0e0"/><rect width="159.89" height="7.27" x="396.5" y="515.27" fill="#e0e0e0"/><polygon fill="url(#daf008b2-47be-48c6-a376-1f125493a331)" points="291.25 181.47 305.05 194.13 324.6 165.38 331.5 171.13 305.05 205.63 285.5 183.78 291.25 181.47"/><polygon fill="#fff" points="293.5 182 305.5 193 322.5 168 328.5 173 305.5 203 288.5 184 293.5 182"/><polygon fill="#fff" points="293.5 344 305.5 355 322.5 330 328.5 335 305.5 365 288.5 346 293.5 344"/><polygon fill="#fff" points="293.5 506 305.5 517 322.5 492 328.5 497 305.5 527 288.5 508 293.5 506"/><g opacity=".5"><line x1="651" x2="657" y1="351" y2="351" fill="none" stroke="#69f0ae" stroke-miterlimit="10" stroke-width="5"/><line x1="668.54" x2="801.23" y1="351" y2="351" fill="none" stroke="#69f0ae" stroke-dasharray="11.54 11.54" stroke-miterlimit="10" stroke-width="5"/><polyline fill="none" stroke="#69f0ae" stroke-miterlimit="10" stroke-width="5" points="807 351 813 351 813 345"/><line x1="813" x2="813" y1="333.55" y2="224.73" fill="none" stroke="#69f0ae" stroke-dasharray="11.45 11.45" stroke-miterlimit="10" stroke-width="5"/><line x1="813" x2="813" y1="219" y2="213" fill="none" stroke="#69f0ae" stroke-miterlimit="10" stroke-width="5"/></g><polyline fill="none" stroke="#69f0ae" stroke-dasharray="12" stroke-miterlimit="10" stroke-width="5" points="231.5 182.5 97.5 182.5 97.5 308.5" opacity=".5"/><polyline fill="none" stroke="#69f0ae" stroke-dasharray="12" stroke-miterlimit="10" stroke-width="5" points="308.5 611.5 308.5 683.5 508.5 683.5" opacity=".5"/><g opacity=".5"><polygon fill="url(#ebbb3683-2e35-4ba5-aa17-65e675e22e58)" points="873.56 107.09 796.5 42 720.64 106.95 719.96 106.57 719.96 107.09 719.44 107.09 719.96 107.38 719.96 107.61 719.96 191.96 719.96 193 873.04 193 872.11 192.48 873.56 192.48 873.56 107.09"/></g><polygon fill="#fff" points="870.5 189.5 723.5 189.5 723.5 107.5 796.5 45 870.5 107.5 870.5 189.5"/><polyline fill="#e0e0e0" points="722.5 107.5 795.5 148.5 869.5 107.5"/><g opacity=".5"><polygon fill="url(#3d5714ec-ccf4-45ec-9ad7-6b8d237940bd)" points="797.02 147.47 752 176 752 69 841 69 841 123.42 797.02 147.47"/></g><polygon fill="#fafafa" points="797 148 754 176 754 71 839 71 839 124.4 797 148"/><polygon points="723 189 870 189 723 107 723 189" opacity=".05"/><polygon fill="#f5f5f5" points="723 190 870 190 723 108 723 190"/><rect width="62" height="4" x="765" y="87" fill="#fff"/><rect width="62" height="4" x="765" y="95" fill="#fff"/><rect width="62" height="4" x="765" y="103" fill="#00f"/><rect width="62" height="4" x="765" y="111" fill="#fff"/><rect width="62" height="4" x="765" y="119" fill="#00f"/><polygon points="839 125 839 123 795.26 147.31 796.45 147.97 839 125" opacity=".05"/><g opacity=".5"><rect width="173.95" height="175" x="541.02" y="620" fill="url(#77e7c8c2-0f5e-4b8d-920a-2630d282c2c9)"/></g><rect width="166" height="167" x="545" y="624" fill="#f5f5f5"/><rect width="146" height="128" x="556" y="629" fill="#fff"/><path fill="#e0e0e0" d="M865.22,768.5c-40.35,0-73-10.29-73-23-40.35,0-73,8.95-73,20v48h146Z" transform="translate(-163.22 -52.5)"/><circle cx="678" cy="657" r="15" fill="#00f"/><g opacity=".5"><rect width="204" height="144.5" y="319.75" fill="url(#a6898519-96e7-44e1-b71e-df9c3f17d463)"/></g><rect width="192" height="136" x="6" y="324" fill="#fff"/><path fill="#e0e0e0" d="M269.17,410.84a37.29,37.29,0,0,0-4.8.32l4.8,36.68-36.91-2.46c-.05.81-.09,1.63-.09,2.46a37,37,0,1,0,37-37Z" transform="translate(-163.22 -52.5)"/><path fill="#00f" d="M256.37,404.16a37,37,0,0,0-32.11,34.22l36.91,2.46Z" transform="translate(-163.22 -52.5)"/></svg>